<?xml version="1.0" encoding="utf-8"?>
<!-- Generator: Adobe Illustrator 19.0.0, SVG Export Plug-In . SVG Version: 6.00 Build 0)  -->
<svg version="1.1" id="Layer_1" xmlns="http://www.w3.org/2000/svg" xmlns:xlink="http://www.w3.org/1999/xlink" x="0px" y="0px"
	 viewBox="0.4 3.2 70 21" style="enable-background:new 0.4 3.2 70 21;" xml:space="preserve">
<style type="text/css">
	.st0{fill:#232020;}
	.st1{fill:#FE9902;}
	.st2{fill:#FE9903;}
</style>
<g>
	<path class="st0" d="M6.2,3.3c0.6,0,1.1,0.2,1.6,0.4c1.3,0.5,2,1.5,2.1,2.9c0,1.5,0,3,0,4.6c0,0.8,0.2,1.5,0.7,2.1
		c0.1,0.1,0.1,0.2,0.2,0.3c0.1,0.2,0.1,0.4-0.1,0.5c-0.5,0.5-1.1,0.9-1.6,1.4c-0.2,0.2-0.4,0.2-0.7,0c-0.4-0.3-0.7-0.7-1-1.2
		c-0.1-0.1-0.1-0.1-0.2,0c-0.3,0.3-0.5,0.5-0.9,0.7c-1.4,0.8-2.8,1-4.3,0.3c-0.9-0.5-1.3-1.3-1.5-2.3c0-0.1,0-0.2-0.1-0.2
		c0-0.3,0-0.5,0-0.8c0.1,0,0.1-0.1,0.1-0.2c0.1-0.6,0.3-1.2,0.7-1.7C1.9,9,2.8,8.6,3.9,8.4C4.8,8.1,5.8,8.1,6.7,8
		c0.1,0,0.2,0,0.2-0.2c0-0.4,0-0.7,0-1.1C6.8,6.2,6.5,5.8,6,5.6C5,5.4,3.9,5.8,3.7,6.8C3.6,7.2,3.5,7.3,3.1,7.2
		C2.5,7.2,1.9,7.1,1.3,7C1,7,0.8,6.8,0.9,6.5c0.2-1,0.7-1.7,1.5-2.3c0.9-0.6,1.8-0.8,2.8-0.9C5.5,3.3,5.9,3.3,6.2,3.3z M6.9,10.6
		c0-0.2,0-0.5,0-0.7c0-0.2-0.1-0.2-0.2-0.2c-0.3,0-0.7,0-1,0.1c-1.4,0.2-2.2,1-2,2.4c0.1,1,0.9,1.5,1.8,1.1c0.5-0.2,0.8-0.5,1-0.9
		C6.9,11.8,6.9,11.2,6.9,10.6z"/>
	<path class="st0" d="M70.5,15.2c-0.1,0.2-0.2,0.3-0.4,0.3c-0.7,0-1.4,0-2.1,0c-0.3,0-0.5-0.2-0.5-0.5c0-2.2,0-4.4,0-6.7
		c0-0.4,0-0.7-0.1-1.1c-0.2-0.6-0.5-1-1-1C65.8,6,65.2,6.3,65,6.9c-0.3,0.6-0.4,1.2-0.4,1.8c0,2,0,4,0,6c0,0.7-0.1,0.8-0.8,0.8
		c-0.6,0-1.1,0-1.7,0c-0.4,0-0.5-0.1-0.5-0.5c0-3.6,0-7.2,0-10.8c0-0.4,0.1-0.5,0.5-0.5c0.6,0,1.2,0,1.8,0c0.4,0,0.5,0.1,0.5,0.5
		c0,0.5,0,1,0,1.5c0.1-0.2,0.2-0.3,0.2-0.5c0.8-1.7,2.4-1.9,3.8-1.5c1.2,0.4,1.8,1.3,1.9,2.5c0,0.2,0,0.5,0.1,0.7c0,0.3,0,0.5,0,0.8
		c-0.1,0-0.1,0.1-0.1,0.2C70.5,10.2,70.5,12.7,70.5,15.2z"/>
	<path class="st0" d="M15.3,5.4c0.5-1.3,1.5-2,2.9-2c1.4,0,2.3,0.7,2.8,2C21,5.3,21.1,5.1,21.2,5c0.6-1.1,1.5-1.6,2.7-1.6
		c1.2,0,2.1,0.5,2.7,1.5C27,5.4,27,6,27,6.6c0,2.3,0,4.5,0,6.8c0,0.5,0,1,0,1.5c0,0.3-0.1,0.5-0.5,0.5c-0.7,0-1.4,0-2.1,0
		c-0.3,0-0.4-0.2-0.4-0.5c0-0.9,0-1.9,0-2.8c0-1.5,0-3,0-4.5c0-0.1,0-0.1,0-0.2c0-0.7-0.4-1.2-1-1.3c-0.7-0.1-1.4,0.2-1.6,0.9
		c-0.2,0.4-0.2,0.9-0.2,1.4c0,2.1,0,4.2,0,6.4c0,0.5-0.1,0.6-0.6,0.6c-0.6,0-1.2,0-1.8,0c-0.4,0-0.5-0.1-0.5-0.5c0-2,0-4.1,0-6.1
		c0-0.5,0-1-0.1-1.6C18,6.5,17.7,6.1,17,6.1c-0.8,0-1.2,0.3-1.4,0.9c-0.2,0.6-0.2,1.2-0.2,1.7c0,2,0,4,0,6c0,0.5-0.1,0.6-0.6,0.6
		c-0.6,0-1.2,0-1.8,0c-0.4,0-0.5-0.1-0.5-0.5c0-3.6,0-7.2,0-10.8c0-0.4,0.1-0.5,0.5-0.5c0.6,0,1.2,0,1.8,0c0.4,0,0.5,0.1,0.5,0.5
		C15.3,4.5,15.3,5,15.3,5.4z"/>
	<path class="st0" d="M33.6,3.3c0.3,0,0.6,0,1,0c1,0.1,1.9,0.4,2.7,1c0.6,0.5,0.9,1.1,1,1.9c0.1,0.5,0.1,1,0.1,1.5
		c0,1.2,0,2.4,0,3.6c0,0.7,0.2,1.3,0.6,1.9c0.1,0.1,0.2,0.2,0.2,0.3c0.1,0.2,0.1,0.4-0.1,0.6c-0.5,0.4-1,0.9-1.5,1.3
		c-0.3,0.2-0.5,0.2-0.8,0c-0.4-0.3-0.7-0.7-0.9-1.1c-0.1-0.2-0.2-0.3-0.4-0.1c-0.7,0.7-1.4,1.2-2.4,1.3c-0.6,0.1-1.3,0.1-1.9-0.1
		c-1.2-0.3-1.9-1.2-2.2-2.4c-0.3-1.7,0.4-3.3,1.8-4.1c0.6-0.3,1.2-0.5,1.8-0.6c0.8-0.2,1.7-0.2,2.5-0.3c0.1,0,0.2,0,0.2-0.1
		c0-0.4,0-0.7,0-1.1c-0.1-0.7-0.6-1.1-1.3-1.2C33,5.5,32.3,6,32.1,6.8c-0.1,0.3-0.2,0.4-0.6,0.4c-0.6-0.1-1.2-0.1-1.8-0.2
		c-0.4-0.1-0.5-0.2-0.4-0.6c0.4-1.6,1.4-2.5,2.9-2.9C32.7,3.4,33.1,3.3,33.6,3.3z M35.3,10.5c0-0.2,0-0.4,0-0.6c0-0.2,0-0.2-0.2-0.2
		c-0.4,0-0.9,0-1.3,0.1c-1.3,0.3-1.9,1.2-1.7,2.4c0.1,0.9,1,1.4,1.9,1c0.4-0.2,0.6-0.4,0.8-0.7C35.2,11.9,35.3,11.2,35.3,10.5z"/>
	<path class="st0" d="M60,9.6c0,1.6-0.3,3.1-1.4,4.4c-2.2,2.6-6.1,2.3-7.7-0.8c-0.7-1.5-0.9-3-0.7-4.6c0.1-1,0.4-2,0.9-2.9
		c1.6-2.8,5.2-2.7,7-1.1c1,0.9,1.5,2.1,1.8,3.4C60,8.5,60,9,60,9.6z M53.3,9.6c0,0.3,0,0.7,0.1,1.2c0.1,0.7,0.2,1.3,0.5,1.9
		c0.5,0.9,1.6,0.9,2.2,0.1c0.2-0.3,0.3-0.6,0.4-0.9c0.3-1.1,0.2-2.3,0.2-3.5c0-0.7-0.1-1.3-0.3-1.9c-0.2-0.5-0.6-0.8-1.1-0.9
		c-0.6-0.1-1.1,0.2-1.4,0.7c-0.1,0.2-0.2,0.4-0.2,0.6C53.3,7.8,53.3,8.6,53.3,9.6z"/>
	<path class="st1" d="M29.1,24.2c-4.6,0-8.8-1-12.7-3c-2.1-1.1-4-2.4-5.8-3.9c0,0-0.1-0.1-0.1-0.1c-0.1-0.1-0.2-0.3-0.1-0.4
		c0.1-0.2,0.3-0.2,0.4-0.1c0.1,0,0.2,0.1,0.3,0.1c1.6,0.9,3.2,1.7,4.9,2.3c2.8,1.1,5.7,1.8,8.8,2.2c2.3,0.3,4.7,0.4,7.1,0.2
		c3.9-0.3,7.7-1.1,11.3-2.6c0.1,0,0.2-0.1,0.4-0.1c0.3-0.1,0.6,0,0.7,0.3c0.1,0.2,0.1,0.5-0.2,0.7c-0.6,0.4-1.2,0.8-1.8,1.2
		c-2,1.1-4.1,1.9-6.3,2.5C33.5,23.9,31.2,24.2,29.1,24.2z"/>
	<path class="st0" d="M44.7,11.6c1.2,0,2.4,0.1,3.4,0.6c1.1,0.5,1,0.6,1,1.5c0,0.3,0,0.7,0,1c0,0.4-0.3,0.6-0.6,0.4
		c-2.4-1.1-4.9-1.2-7.3,0c-0.3,0.2-0.6,0-0.6-0.3c0-0.6,0-1.3,0-1.9c0-0.3,0.1-0.6,0.3-0.9c1.3-1.9,2.6-3.7,3.9-5.6
		C44.9,6.2,45,6.1,45.1,6c-0.1,0-0.2,0-0.3,0c-1.1,0-2.2,0-3.3,0C41.1,6,41,5.8,41,5.4C41,5,41,4.5,41,4c0-0.3,0.1-0.5,0.4-0.5
		c2.3,0,4.7,0,7,0c0.3,0,0.4,0.1,0.4,0.5c0,0.4,0,0.8,0,1.2c0,0.3-0.2,0.6-0.4,0.8c-0.7,1-1.5,2-2.2,3C45.8,9.9,45.3,10.7,44.7,11.6
		z"/>
	<path class="st2" d="M44.8,15.9c0.8,0,1.5,0.1,2.1,0.3c0.3,0.1,0.5,0.3,0.5,0.7c0.1,1.1-0.2,2.2-0.6,3.2c-0.4,0.9-0.9,1.7-1.5,2.3
		c-0.1,0.1-0.3,0.3-0.4,0.3c-0.2,0.1-0.4,0-0.3-0.3c0-0.1,0.1-0.2,0.1-0.3c0.4-1.1,0.8-2.1,1.1-3.2c0.1-0.3,0.1-0.5,0.1-0.8
		c0-0.3-0.2-0.5-0.5-0.6c-0.6-0.2-1.2-0.2-1.8-0.1c-0.8,0-1.6,0.1-2.4,0.2c-0.2,0-0.4,0.1-0.4-0.1c-0.1-0.2,0.1-0.3,0.3-0.4
		c0.8-0.5,1.6-0.8,2.5-1C43.9,16,44.4,15.9,44.8,15.9z"/>
</g>
</svg>
