<?xml version="1.0" encoding="utf-8"?>
<!-- Generator: Adobe Illustrator 19.0.0, SVG Export Plug-In . SVG Version: 6.00 Build 0)  -->
<svg version="1.1" id="Layer_1" xmlns="http://www.w3.org/2000/svg" xmlns:xlink="http://www.w3.org/1999/xlink" x="0px" y="0px"
	 viewBox="0 0 19.3 7.8" style="enable-background:new 0 0 19.3 7.8;" xml:space="preserve">
<style type="text/css">
	.st0{fill:#0667D2;}
	.st1{fill:#E5373D;}
	.st2{fill:#F4B007;}
	.st3{fill:#87B81A;}
</style>
<g>
	<path class="st0" d="M9.8,4.9C9.1,6.2,7.9,6.6,6.6,6.1C6.4,6,6.1,5.9,5.9,5.7c-0.1,0-0.1,0.1-0.1,0.2c0,0.3,0,0.3-0.4,0.3
		c-0.2,0-0.5,0.1-0.6,0c-0.1-0.1,0-0.4,0-0.6c0-0.4,0-0.8,0-1.3c0-0.3,0-0.7,0-1c0-1,0-2,0-3c0-0.2,0-0.3,0.3-0.3c0.2,0,0.4,0,0.5,0
		c0.2,0,0.2,0.1,0.2,0.2c0,0.7,0,1.4,0,2.1c0.1,0,0.1,0,0.1,0c0.8-0.7,2.3-0.8,3.2,0c0.6,0.5,0.8,1.1,0.8,1.8c0,0.1,0,0.1,0,0.2
		C9.9,4.5,9.8,4.7,9.8,4.9z M8.9,4c0-0.6-0.2-1.2-0.9-1.4C7.3,2.2,6.5,2.5,6.1,3.1C5.7,3.9,5.9,5,6.6,5.4c0.5,0.3,1,0.3,1.5,0.1
		C8.7,5.1,8.9,4.6,8.9,4z"/>
	<path class="st1" d="M4.8,3.3c0,0.3,0,0.7,0,1c-1.2,0-2.4,0-3.5,0C1,4.3,1,4.3,1.1,4.6c0.1,0.6,0.6,0.9,1.2,1
		C2.8,5.7,3.4,5.5,3.7,5c0-0.1,0.1-0.1,0.2-0.1c0.2,0,0.5,0,0.7,0c0.1,0,0.1,0.1,0.1,0.2C4.6,5.5,4.4,5.8,4,6C3,6.5,2,6.4,1,6
		C0.4,5.7,0.2,5.2,0.1,4.6C0,4.2,0,3.7,0.1,3.3c0.2-0.7,0.6-1.2,1.3-1.4C2,1.7,2.6,1.7,3.2,1.8C4.1,1.9,4.6,2.5,4.8,3.3z M2.4,3.6
		c0.4,0,0.8,0,1.2,0c0.2,0,0.2-0.1,0.2-0.2c0-0.2-0.1-0.4-0.3-0.6C3,2.3,2,2.2,1.4,2.7C1.2,2.9,1.1,3.1,1.1,3.4c0,0.2,0,0.2,0.2,0.2
		C1.6,3.6,2,3.6,2.4,3.6z"/>
	<path class="st2" d="M9.8,4.9c0-0.2,0.1-0.4,0.1-0.6c0.4-0.6,1-0.7,1.6-0.8c0.5-0.1,1.1,0,1.6,0c0.2,0,0.2,0,0.2-0.2
		c0-0.4-0.3-0.7-0.8-0.8c-0.4-0.1-0.7-0.1-1.1,0.1c-0.2,0.1-0.3,0.2-0.4,0.3C11.2,3,11.1,3,10.9,3c-0.2,0-0.4,0-0.6,0
		c-0.2,0-0.2-0.1-0.2-0.2c0.1-0.4,0.4-0.7,0.7-0.8c1-0.4,2-0.4,3,0.1c0,0,0.1,0.1,0.1,0c0,0,0,0,0,0c0,0.1,0,0.1,0,0.1
		c0.2,0.2,0.3,0.6,0.5,0.8c-0.1,0.1,0,0.3,0,0.4c0,0.8,0,1.7,0,2.5c0,0.1,0,0.2-0.1,0.1c-0.2,0-0.4,0-0.6,0c-0.2,0-0.2-0.1-0.2-0.2
		c0-0.1,0-0.2,0-0.4c-0.2,0.2-0.3,0.3-0.5,0.4c-0.8,0.4-1.6,0.5-2.4,0.2C10.1,5.9,9.8,5.5,9.8,4.9z M11.9,5.7c0.1,0,0.2,0,0.3,0
		C13,5.6,13.5,5,13.4,4.3c0-0.1,0-0.2-0.2-0.2c-0.5,0-0.9,0-1.4,0.1c-0.2,0-0.4,0.1-0.6,0.1c-0.3,0.1-0.4,0.3-0.5,0.5
		c0,0.3,0.1,0.5,0.4,0.7C11.4,5.6,11.7,5.7,11.9,5.7z"/>
	<path class="st3" d="M14.4,3c-0.1-0.3-0.2-0.6-0.5-0.8c0,0,0-0.1,0-0.1c0,0,0,0,0,0c0-0.1,0-0.1,0-0.2c0.3,0,0.7,0,1,0
		c0.1,0,0.2,0.1,0.2,0.2C15.6,3,16.1,4,16.5,4.9c0,0.1,0.1,0.2,0.1,0.2c0.1-0.1,0.1-0.2,0.2-0.3c0.5-0.9,0.9-1.9,1.4-2.8
		c0.1-0.1,0.1-0.2,0.3-0.2c0.2,0,0.4,0,0.6,0c0.2,0,0.2,0,0.1,0.2c-0.3,0.5-0.5,1-0.7,1.5c-0.7,1.3-1.3,2.6-2,3.9
		c-0.1,0.2-0.2,0.3-0.5,0.3c-0.2,0-0.3,0-0.5,0c-0.2,0-0.3,0-0.1-0.2c0.2-0.4,0.4-0.8,0.7-1.3c0.1-0.1,0.1-0.2,0-0.3
		C15.6,5.1,15,4.1,14.4,3C14.5,3.1,14.5,3.1,14.4,3z"/>
</g>
</svg>
